<svg width="82" height="82" viewBox="0 0 82 82" fill="none" xmlns="http://www.w3.org/2000/svg">
<rect y="27" width="82" height="55" rx="21" fill="url(#paint0_linear_37_2507)" fill-opacity="0.05"/>
<rect x="28" y="35" width="26" height="19" rx="3" fill="url(#paint1_linear_37_2507)" fill-opacity="0.3"/>
<path d="M41 1H21C9.9543 1 1 9.9543 1 21V61C1 72.0457 9.9543 81 21 81H41" stroke="url(#paint2_radial_37_2507)" stroke-width="2" stroke-linecap="round"/>
<path d="M41 81H61C72.0457 81 81 72.0457 81 61V21C81 9.9543 72.0457 0.999996 61 0.999996H41" stroke="url(#paint3_radial_37_2507)" stroke-width="2" stroke-linecap="round"/>
<rect x="28" y="28" width="26" height="26" rx="4" stroke="#B8D3FF" stroke-width="2"/>
<path d="M34.8222 47C34.166 47 33.6978 46.364 33.8927 45.7375L36.8017 36.3857C37.058 35.5615 37.8207 35 38.6838 35C39.5469 35 40.3096 35.5615 40.566 36.3857L43.4744 45.7359C43.6696 46.3632 43.2008 47 42.5438 47C42.1182 47 41.7418 46.7238 41.614 46.3179L38.508 36.4455C38.4749 36.3403 38.5535 36.2333 38.6637 36.2333C38.7737 36.2333 38.8521 36.3399 38.8195 36.4449L35.7517 46.3155C35.6252 46.7226 35.2485 47 34.8222 47ZM36.5176 44.4C35.9998 44.4 35.5801 43.9803 35.5801 43.4625C35.5801 42.9447 35.9998 42.525 36.5176 42.525H40.8583C41.376 42.525 41.7958 42.9447 41.7958 43.4625C41.7958 43.9803 41.376 44.4 40.8583 44.4H36.5176Z" fill="#B8D3FF"/>
<path d="M46.5093 47C45.9621 47 45.5186 46.5564 45.5186 46.0093V35.9907C45.5186 35.4436 45.9621 35 46.5093 35C47.0564 35 47.5 35.4436 47.5 35.9907V46.0093C47.5 46.5564 47.0564 47 46.5093 47Z" fill="#B8D3FF"/>
<path d="M35 28L35 25" stroke="#B8D3FF" stroke-width="2" stroke-linecap="round"/>
<path d="M41 28L41 25" stroke="#B8D3FF" stroke-width="2" stroke-linecap="round"/>
<path d="M47 28L47 25" stroke="#B8D3FF" stroke-width="2" stroke-linecap="round"/>
<path d="M35 57L35 54" stroke="#B8D3FF" stroke-width="2" stroke-linecap="round"/>
<path d="M41 57L41 54" stroke="#B8D3FF" stroke-width="2" stroke-linecap="round"/>
<path d="M47 57L47 54" stroke="#B8D3FF" stroke-width="2" stroke-linecap="round"/>
<path d="M28 47L25 47" stroke="#B8D3FF" stroke-width="2" stroke-linecap="round"/>
<path d="M28 41L25 41" stroke="#B8D3FF" stroke-width="2" stroke-linecap="round"/>
<path d="M28 35L25 35" stroke="#B8D3FF" stroke-width="2" stroke-linecap="round"/>
<path d="M57 47L54 47" stroke="#B8D3FF" stroke-width="2" stroke-linecap="round"/>
<path d="M57 41L54 41" stroke="#B8D3FF" stroke-width="2" stroke-linecap="round"/>
<path d="M57 35L54 35" stroke="#B8D3FF" stroke-width="2" stroke-linecap="round"/>
<defs>
<linearGradient id="paint0_linear_37_2507" x1="41" y1="27" x2="41" y2="82" gradientUnits="userSpaceOnUse">
<stop stop-color="white" stop-opacity="0"/>
<stop offset="1" stop-color="white"/>
</linearGradient>
<linearGradient id="paint1_linear_37_2507" x1="41" y1="35" x2="41" y2="54" gradientUnits="userSpaceOnUse">
<stop stop-color="#B8D3FF" stop-opacity="0"/>
<stop offset="1" stop-color="#B8D3FF"/>
</linearGradient>
<radialGradient id="paint2_radial_37_2507" cx="0" cy="0" r="1" gradientUnits="userSpaceOnUse" gradientTransform="translate(41 81) rotate(-90) scale(80 82.2)">
<stop stop-color="#99A8BF"/>
<stop offset="1" stop-color="#99A8BF" stop-opacity="0.05"/>
</radialGradient>
<radialGradient id="paint3_radial_37_2507" cx="0" cy="0" r="1" gradientUnits="userSpaceOnUse" gradientTransform="translate(41 1) rotate(90) scale(80 82.2)">
<stop stop-color="#99A8BF"/>
<stop offset="1" stop-color="#99A8BF" stop-opacity="0.05"/>
</radialGradient>
</defs>
</svg>
