<svg width="82" height="82" viewBox="0 0 82 82" fill="none" xmlns="http://www.w3.org/2000/svg">
<rect y="27" width="82" height="55" rx="21" fill="url(#paint0_linear_54_3837)" fill-opacity="0.05"/>
<path d="M41 1H21C9.9543 1 1 9.9543 1 21V61C1 72.0457 9.9543 81 21 81H41" stroke="url(#paint1_radial_54_3837)" stroke-width="2" stroke-linecap="round"/>
<path d="M41 81H61C72.0457 81 81 72.0457 81 61V21C81 9.9543 72.0457 0.999996 61 0.999996H41" stroke="url(#paint2_radial_54_3837)" stroke-width="2" stroke-linecap="round"/>
<path d="M24 35H58V41C58 50.3888 50.3888 58 41 58C31.6112 58 24 50.3888 24 41V35Z" fill="url(#paint3_linear_54_3837)" fill-opacity="0.3"/>
<rect x="24" y="24" width="34" height="34" rx="17" stroke="#B8D3FF" stroke-width="2"/>
<path d="M41 41L47 35" stroke="#B8D3FF" stroke-width="2" stroke-linecap="round"/>
<path d="M41 27V24" stroke="#B8D3FF" stroke-width="2" stroke-linecap="round"/>
<path d="M28.9792 28.9792L31 31" stroke="#B8D3FF" stroke-width="2" stroke-linecap="round"/>
<path d="M53.021 28.9792L51 31.0002" stroke="#B8D3FF" stroke-width="2" stroke-linecap="round"/>
<path d="M27 41H24" stroke="#B8D3FF" stroke-width="2" stroke-linecap="round"/>
<path d="M58 41H55" stroke="#B8D3FF" stroke-width="2" stroke-linecap="round"/>
<rect x="39" y="39" width="4" height="4" rx="2" fill="#0B0C27" stroke="#B8D3FF" stroke-width="2"/>
<defs>
<linearGradient id="paint0_linear_54_3837" x1="41" y1="27" x2="41" y2="82" gradientUnits="userSpaceOnUse">
<stop stop-color="white" stop-opacity="0"/>
<stop offset="1" stop-color="white"/>
</linearGradient>
<radialGradient id="paint1_radial_54_3837" cx="0" cy="0" r="1" gradientUnits="userSpaceOnUse" gradientTransform="translate(41 81) rotate(-90) scale(80 82.2)">
<stop stop-color="#99A8BF"/>
<stop offset="1" stop-color="#99A8BF" stop-opacity="0.05"/>
</radialGradient>
<radialGradient id="paint2_radial_54_3837" cx="0" cy="0" r="1" gradientUnits="userSpaceOnUse" gradientTransform="translate(41 1) rotate(90) scale(80 82.2)">
<stop stop-color="#99A8BF"/>
<stop offset="1" stop-color="#99A8BF" stop-opacity="0.05"/>
</radialGradient>
<linearGradient id="paint3_linear_54_3837" x1="41" y1="35" x2="41" y2="58" gradientUnits="userSpaceOnUse">
<stop stop-color="#B8D3FF" stop-opacity="0"/>
<stop offset="1" stop-color="#B8D3FF"/>
</linearGradient>
</defs>
</svg>
