<?xml version="1.0" encoding="utf-8"?>
<svg viewBox="0 0 152 20" fill="none" xmlns="http://www.w3.org/2000/svg">
  <path d="M 18.71 16.51 C 16.923333333333336 16.51 15.590000000000002 16.11 14.71 15.31 C 13.823333333333334 14.503333333333334 13.356666666666667 13.473333333333333 13.31 12.22 L 14.93 12.22 C 15.016666666666667 13.166666666666668 15.41 13.866666666666667 16.11 14.32 C 16.81 14.766666666666667 17.653333333333332 14.99 18.64 14.99 C 19.580000000000002 14.99 20.336666666666666 14.8 20.91 14.42 C 21.483333333333334 14.033333333333333 21.77 13.506666666666666 21.77 12.84 C 21.77 12.146666666666667 21.473333333333333 11.64 20.88 11.32 C 20.286666666666665 11.006666666666666 19.266666666666666 10.693333333333333 17.82 10.38 C 16.366666666666667 10.073333333333334 15.326666666666666 9.646666666666667 14.7 9.1 C 14.066666666666666 8.553333333333333 13.75 7.823333333333333 13.75 6.91 C 13.75 5.89 14.16 5.05 14.98 4.39 C 15.806666666666667 3.73 16.896666666666665 3.4 18.25 3.4 C 19.683333333333334 3.4 20.836666666666666 3.7333333333333334 21.71 4.4 C 22.59 5.06 23.053333333333335 5.996666666666666 23.1 7.21 L 21.47 7.21 C 21.30333333333333 5.676666666666667 20.253333333333334 4.91 18.32 4.91 C 17.386666666666667 4.91 16.663333333333334 5.086666666666667 16.15 5.44 C 15.643333333333333 5.786666666666667 15.39 6.253333333333333 15.39 6.84 C 15.39 7.366666666666666 15.593333333333334 7.763333333333333 16 8.03 C 16.413333333333334 8.296666666666667 17.183333333333334 8.553333333333333 18.31 8.8 C 19.436666666666667 9.046666666666667 20.33 9.29 20.99 9.53 C 21.656666666666666 9.776666666666667 22.226666666666667 10.153333333333334 22.7 10.66 C 23.173333333333332 11.173333333333334 23.41 11.856666666666667 23.41 12.71 C 23.41 13.803333333333333 22.973333333333333 14.709999999999999 22.1 15.43 C 21.233333333333334 16.150000000000002 20.103333333333335 16.51 18.71 16.51 Z" transform="matrix(1.197615, 0, 0, 0.995481, -14.989342, 0.066598)" style="fill: rgb(255, 255, 255);"/>
  <path d="M 133.88 16.29 L 132.19 16.29 L 132.19 3.62 L 133.88 3.62 L 133.88 16.29 Z" transform="matrix(1.197615, 0, 0, 0.995481, -14.989342, 0.066598)" style="fill: rgb(255, 255, 255);"/>
  <path d="M 131.04 16.29 L 129.15 16.29 L 127.68 12.44 L 122.37 12.44 L 120.97 16.29 L 119.2 16.29 L 124.07 3.62 L 125.87 3.62 L 131.04 16.29 Z" transform="matrix(1.197615, 0, 0, 0.995481, -14.989342, 0.066598)" style="fill: rgb(255, 255, 255);"/>
  <path d="M 127.19 11.11 L 124.96 5.23 L 122.83 11.11 L 127.19 11.11 Z" transform="matrix(1.197615, 0, 0, 0.995481, -14.989342, 0.066598)" style="fill: rgb(255, 255, 255);"/>
  <path d="M 117.64 10.82 C 117.50666666666666 9.94 117.21 9.28 116.75 8.84 C 116.29 8.4 115.72333333333333 8.18 115.05 8.18 C 114.40333333333334 8.18 113.84666666666666 8.4 113.38 8.84 C 112.91333333333334 9.273333333333333 112.61666666666667 9.933333333333334 112.49 10.82 L 117.64 10.82 Z" transform="matrix(1.197615, 0, 0, 0.995481, -14.989342, 0.066598)" style="fill: rgb(255, 255, 255);"/>
  <path d="M 115.24 16.51 C 113.88666666666666 16.51 112.80333333333333 16.086666666666666 111.99 15.24 C 111.17 14.393333333333334 110.76 13.216666666666667 110.76 11.71 C 110.76 10.21 111.15666666666667 9.036666666666667 111.95 8.19 C 112.74333333333334 7.336666666666667 113.77666666666667 6.91 115.05 6.91 C 116.36333333333333 6.91 117.41 7.33 118.19 8.17 C 118.97 9.003333333333334 119.36 10.183333333333334 119.36 11.71 L 119.36 12.1 L 112.45 12.1 C 112.52333333333334 13.16 112.81666666666666 13.946666666666667 113.33 14.46 C 113.84333333333333 14.973333333333334 114.47999999999999 15.23 115.24 15.23 C 115.80666666666667 15.23 116.32000000000001 15.083333333333334 116.78 14.79 C 117.24 14.503333333333332 117.48 14.09 117.5 13.55 L 119.19 13.55 C 119.06333333333333 14.496666666666668 118.63333333333334 15.226666666666667 117.9 15.74 C 117.17333333333333 16.253333333333334 116.28666666666666 16.51 115.24 16.51 Z" transform="matrix(1.197615, 0, 0, 0.995481, -14.989342, 0.066598)" style="fill: rgb(255, 255, 255);"/>
  <path d="M 109.29 8.61 C 109.05666666666667 8.536666666666667 108.72666666666666 8.5 108.3 8.5 C 107.46666666666667 8.5 106.75333333333333 8.936666666666667 106.16 9.81 L 106.16 16.29 L 104.53 16.29 L 104.53 7.12 L 106.16 7.12 L 106.16 8.4 C 106.84666666666666 7.406666666666667 107.64333333333333 6.91 108.55 6.91 C 108.77666666666667 6.91 109.02333333333334 6.933333333333334 109.29 6.98 L 109.29 8.61 Z" transform="matrix(1.197615, 0, 0, 0.995481, -14.989342, 0.066598)" style="fill: rgb(255, 255, 255);"/>
  <path d="M 101.25 15.12 C 100.44333333333334 16.046666666666667 99.53 16.51 98.51 16.51 C 96.44333333333333 16.51 95.41 15.38 95.41 13.12 L 95.41 7.12 L 97.05 7.12 L 97.05 13.05 C 97.05 13.796666666666667 97.17999999999999 14.336666666666666 97.44 14.67 C 97.70666666666666 14.996666666666666 98.14666666666668 15.16 98.76 15.16 C 99.66666666666667 15.16 100.49666666666667 14.67 101.25 13.69 L 101.25 7.12 L 102.88 7.12 L 102.88 16.29 L 101.25 16.29 L 101.25 15.12 Z" transform="matrix(1.197615, 0, 0, 0.995481, -14.989342, 0.066598)" style="fill: rgb(255, 255, 255);"/>
  <path d="M 89.64 16.51 C 87.13333333333333 16.51 85.82333333333332 15.523333333333335 85.71 13.55 L 87.34 13.55 C 87.35333333333334 14.67 88.11333333333333 15.23 89.62 15.23 C 90.3 15.23 90.81666666666666 15.09 91.17 14.81 C 91.52333333333334 14.530000000000001 91.7 14.18 91.7 13.76 C 91.7 13.346666666666668 91.52666666666667 13.053333333333335 91.18 12.88 C 90.83333333333333 12.713333333333335 90.12 12.493333333333334 89.04 12.22 C 87.96000000000001 11.946666666666667 87.17 11.643333333333334 86.67 11.31 C 86.17 10.976666666666667 85.92 10.39 85.92 9.55 C 85.92 8.790000000000001 86.23 8.16 86.85 7.66 C 87.47 7.16 88.3 6.91 89.34 6.91 C 91.74 6.91 92.96666666666667 7.766666666666667 93.02 9.48 L 91.4 9.48 C 91.34 8.613333333333333 90.69 8.18 89.45 8.18 C 88.90333333333334 8.18 88.45 8.286666666666667 88.09 8.5 C 87.73 8.706666666666667 87.55 9.006666666666668 87.55 9.4 C 87.55 9.76 87.68666666666667 10.02 87.96 10.18 C 88.24 10.333333333333334 88.93333333333334 10.546666666666667 90.04 10.82 C 91.15333333333334 11.086666666666668 91.97666666666666 11.396666666666667 92.51 11.75 C 93.05 12.11 93.32 12.726666666666667 93.32 13.6 C 93.32 14.44 92.98666666666666 15.133333333333333 92.32 15.68 C 91.66 16.233333333333334 90.76666666666667 16.51 89.64 16.51 Z" transform="matrix(1.197615, 0, 0, 0.995481, -14.989342, 0.066598)" style="fill: rgb(255, 255, 255);"/>
  <path d="M 83.09 15.35 C 82.26333333333334 16.123333333333335 81.19666666666666 16.51 79.89 16.51 C 78.97666666666666 16.51 78.22666666666666 16.263333333333335 77.64 15.77 C 77.05333333333334 15.276666666666666 76.76 14.639999999999999 76.76 13.86 C 76.76 11.72 78.60666666666667 10.65 82.3 10.65 L 83.09 10.65 C 83.09 9.99 83.05666666666667 9.513333333333334 82.99 9.22 C 82.91666666666666 8.92 82.72333333333333 8.673333333333334 82.41 8.48 C 82.09 8.28 81.58666666666667 8.18 80.9 8.18 C 79.44666666666667 8.18 78.69666666666667 8.7 78.65 9.74 L 77.03 9.74 C 77.14999999999999 7.8533333333333335 78.46666666666667 6.91 80.98 6.91 C 82.16 6.91 83.07666666666667 7.1433333333333335 83.73 7.61 C 84.39 8.076666666666668 84.72 8.993333333333334 84.72 10.36 L 84.72 16.29 L 83.09 16.29 L 83.09 15.35 Z" transform="matrix(1.197615, 0, 0, 0.995481, -14.989342, 0.066598)" style="fill: rgb(255, 255, 255);"/>
  <path d="M 83.09 13.88 L 83.09 11.85 L 81.98 11.85 C 79.61333333333334 11.85 78.43 12.493333333333332 78.43 13.78 C 78.43 14.246666666666666 78.60333333333334 14.603333333333333 78.95 14.85 C 79.29666666666667 15.103333333333333 79.76333333333334 15.23 80.35 15.23 C 80.89 15.23 81.41 15.106666666666667 81.91 14.86 C 82.41 14.62 82.80333333333333 14.293333333333333 83.09 13.88 Z" transform="matrix(1.197615, 0, 0, 0.995481, -14.989342, 0.066598)" style="fill: rgb(255, 255, 255);"/>
  <path d="M 74.5 10.82 C 74.37333333333333 9.94 74.07666666666667 9.28 73.61 8.84 C 73.15 8.4 72.58666666666667 8.18 71.92 8.18 C 71.26666666666667 8.18 70.70666666666666 8.4 70.24 8.84 C 69.77333333333334 9.273333333333333 69.47666666666667 9.933333333333334 69.35 10.82 L 74.5 10.82 Z" transform="matrix(1.197615, 0, 0, 0.995481, -14.989342, 0.066598)" style="fill: rgb(255, 255, 255);"/>
  <path d="M 72.1 16.51 C 70.75333333333333 16.51 69.67 16.086666666666666 68.85 15.24 C 68.03 14.393333333333334 67.62 13.216666666666667 67.62 11.71 C 67.62 10.21 68.01666666666667 9.036666666666667 68.81 8.19 C 69.60333333333334 7.336666666666667 70.64 6.91 71.92 6.91 C 73.22666666666666 6.91 74.27 7.33 75.05 8.17 C 75.83 9.003333333333334 76.22 10.183333333333334 76.22 11.71 L 76.22 12.1 L 69.32 12.1 C 69.38666666666667 13.16 69.68 13.946666666666667 70.2 14.46 C 70.71333333333334 14.973333333333334 71.34666666666666 15.23 72.1 15.23 C 72.67333333333333 15.23 73.18666666666667 15.083333333333334 73.64 14.79 C 74.1 14.503333333333332 74.34333333333333 14.09 74.37 13.55 L 76.05 13.55 C 75.92333333333333 14.496666666666668 75.49666666666667 15.226666666666667 74.77 15.74 C 74.03666666666666 16.253333333333334 73.14666666666666 16.51 72.1 16.51 Z" transform="matrix(1.197615, 0, 0, 0.995481, -14.989342, 0.066598)" style="fill: rgb(255, 255, 255);"/>
  <path d="M 64.44 16.29 L 62.85 16.29 L 62.85 5.51 L 59.23 16.29 L 57.73 16.29 L 54.12 5.51 L 54.12 16.29 L 52.53 16.29 L 52.53 3.62 L 55.04 3.62 L 58.47 14.18 L 61.92 3.62 L 64.44 3.62 L 64.44 16.29 Z" transform="matrix(1.197615, 0, 0, 0.995481, -14.989342, 0.066598)" style="fill: rgb(255, 255, 255);"/>
  <path d="M 44.86 14.11 C 45.559999999999995 14.856666666666667 46.36333333333333 15.23 47.27 15.23 C 47.97 15.23 48.526666666666664 14.926666666666668 48.94 14.32 C 49.36 13.72 49.57 12.823333333333334 49.57 11.63 C 49.57 10.503333333333334 49.373333333333335 9.646666666666667 48.98 9.06 C 48.586666666666666 8.473333333333333 48.04 8.18 47.34 8.18 C 46.43333333333333 8.18 45.60666666666666 8.706666666666667 44.86 9.76 L 44.86 14.11 Z" transform="matrix(1.197615, 0, 0, 0.995481, -14.989342, 0.066598)" style="fill: rgb(255, 255, 255);"/>
  <path d="M 44.86 8.22 C 45.586666666666666 7.346666666666667 46.46 6.91 47.48 6.91 C 48.68 6.91 49.61 7.336666666666667 50.27 8.19 C 50.92333333333333 9.036666666666667 51.25 10.183333333333334 51.25 11.63 C 51.25 13.136666666666667 50.88333333333333 14.326666666666666 50.15 15.2 C 49.416666666666664 16.073333333333334 48.489999999999995 16.51 47.37 16.51 C 46.376666666666665 16.51 45.54 16.200000000000003 44.86 15.58 L 44.86 19.82 L 43.23 19.82 L 43.23 7.12 L 44.86 7.12 L 44.86 8.22 Z" transform="matrix(1.197615, 0, 0, 0.995481, -14.989342, 0.066598)" style="fill: rgb(255, 255, 255);"/>
  <path d="M 39.96 15.35 C 39.126666666666665 16.123333333333335 38.056666666666665 16.51 36.75 16.51 C 35.843333333333334 16.51 35.093333333333334 16.263333333333335 34.5 15.77 C 33.913333333333334 15.276666666666666 33.62 14.639999999999999 33.62 13.86 C 33.62 11.72 35.46666666666666 10.65 39.16 10.65 L 39.96 10.65 C 39.96 9.99 39.92333333333333 9.513333333333334 39.85 9.22 C 39.78333333333333 8.92 39.59 8.673333333333334 39.27 8.48 C 38.95666666666666 8.28 38.45333333333333 8.18 37.76 8.18 C 36.306666666666665 8.18 35.56 8.7 35.52 9.74 L 33.89 9.74 C 34.01 7.8533333333333335 35.33 6.91 37.85 6.91 C 39.02333333333333 6.91 39.94 7.1433333333333335 40.6 7.61 C 41.25333333333333 8.076666666666668 41.58 8.993333333333334 41.58 10.36 L 41.58 16.29 L 39.96 16.29 L 39.96 15.35 Z" transform="matrix(1.197615, 0, 0, 0.995481, -14.989342, 0.066598)" style="fill: rgb(255, 255, 255);"/>
  <path d="M 39.96 13.88 L 39.96 11.85 L 38.84 11.85 C 36.48 11.85 35.3 12.493333333333332 35.3 13.78 C 35.3 14.246666666666666 35.47333333333333 14.603333333333333 35.82 14.85 C 36.16666666666667 15.103333333333333 36.63333333333333 15.23 37.22 15.23 C 37.75333333333334 15.23 38.27 15.106666666666667 38.77 14.86 C 39.27666666666667 14.62 39.67333333333333 14.293333333333333 39.96 13.88 Z" transform="matrix(1.197615, 0, 0, 0.995481, -14.989342, 0.066598)" style="fill: rgb(255, 255, 255);"/>
  <path d="M 26.7 8.29 C 27.513333333333335 7.37 28.42666666666667 6.91 29.44 6.91 C 31.506666666666668 6.91 32.54 8.036666666666667 32.54 10.29 L 32.54 16.29 L 30.91 16.29 L 30.91 10.36 C 30.91 9.613333333333333 30.776666666666667 9.076666666666666 30.51 8.75 C 30.243333333333332 8.416666666666666 29.803333333333335 8.25 29.19 8.25 C 28.363333333333333 8.25 27.53333333333333 8.74 26.7 9.72 L 26.7 16.29 L 25.07 16.29 L 25.07 7.12 L 26.7 7.12 L 26.7 8.29 Z" transform="matrix(1.197615, 0, 0, 0.995481, -14.989342, 0.066598)" style="fill: rgb(255, 255, 255);"/>
</svg>