<?xml version="1.0" encoding="utf-8"?>
<svg viewBox="0 0 150 23.438" width="150px" height="23.438px" fill="none" xmlns="http://www.w3.org/2000/svg">
  <path d="M 7.83 19.51 Q 4.67 19.51 3.1 18.09 Q 1.54 16.67 1.45 14.45 L 3.36 14.45 Q 3.52 16.12 4.76 16.92 Q 6 17.72 7.75 17.72 Q 9.41 17.72 10.43 17.04 Q 11.45 16.35 11.45 15.18 Q 11.45 13.95 10.39 13.38 Q 9.34 12.82 6.78 12.28 Q 4.21 11.73 3.09 10.76 Q 1.98 9.79 1.98 8.18 Q 1.98 6.36 3.43 5.2 Q 4.88 4.04 7.29 4.04 Q 9.82 4.04 11.37 5.21 Q 12.93 6.38 13.02 8.53 L 11.09 8.53 Q 10.79 5.81 7.37 5.81 Q 5.72 5.81 4.81 6.43 Q 3.9 7.06 3.9 8.09 Q 3.9 9.03 4.63 9.5 Q 5.36 9.97 7.36 10.4 Q 9.35 10.84 10.53 11.27 Q 11.7 11.7 12.54 12.6 Q 13.37 13.51 13.37 15.03 Q 13.37 16.96 11.84 18.23 Q 10.3 19.51 7.83 19.51 Z M 17.79 9.8 Q 19.22 8.18 21.02 8.18 Q 24.68 8.18 24.68 12.17 L 24.68 19.25 L 22.76 19.25 L 22.76 12.25 Q 22.76 10.92 22.28 10.34 Q 21.81 9.76 20.72 9.76 Q 19.25 9.76 17.79 11.5 L 17.79 19.25 L 15.86 19.25 L 15.86 8.42 L 17.79 8.42 Z M 34.34 16.4 L 34.34 14.01 L 33.02 14.01 Q 28.84 14.01 28.84 16.28 Q 28.84 17.11 29.45 17.55 Q 30.06 18 31.1 18 Q 32.05 18 32.94 17.57 Q 33.83 17.14 34.34 16.4 Z M 34.34 18.14 Q 32.87 19.51 30.55 19.51 Q 28.94 19.51 27.9 18.63 Q 26.86 17.76 26.86 16.38 Q 26.86 12.59 33.4 12.59 L 34.34 12.59 Q 34.34 11.42 34.22 10.9 Q 34.09 10.37 33.53 10.03 Q 32.97 9.68 31.75 9.68 Q 29.18 9.68 29.09 11.52 L 27.18 11.52 Q 27.39 8.18 31.85 8.18 Q 33.93 8.18 35.09 9.01 Q 36.26 9.83 36.26 12.25 L 36.26 19.25 L 34.34 19.25 Z M 41.02 9.72 Q 42.31 8.18 44.11 8.18 Q 46.24 8.18 47.4 9.68 Q 48.56 11.19 48.56 13.75 Q 48.56 16.41 47.26 17.96 Q 45.96 19.51 43.98 19.51 Q 42.22 19.51 41.02 18.42 L 41.02 23.42 L 39.09 23.42 L 39.09 8.42 L 41.02 8.42 Z M 41.02 16.68 Q 42.26 18 43.86 18 Q 45.1 18 45.84 16.93 Q 46.57 15.86 46.57 13.75 Q 46.57 11.75 45.88 10.72 Q 45.18 9.68 43.94 9.68 Q 42.34 9.68 41.02 11.54 Z M 65.03 19.25 L 63.16 19.25 L 63.16 6.53 L 58.89 19.25 L 57.12 19.25 L 52.85 6.53 L 52.85 19.25 L 50.97 19.25 L 50.97 4.29 L 53.94 4.29 L 57.99 16.76 L 62.06 4.29 L 65.03 4.29 Z M 72.73 19.51 Q 70.34 19.51 68.89 18.01 Q 67.44 16.52 67.44 13.84 Q 67.44 11.19 68.84 9.68 Q 70.25 8.18 72.51 8.18 Q 74.83 8.18 76.21 9.66 Q 77.59 11.14 77.59 13.84 L 77.59 14.3 L 69.44 14.3 Q 69.56 16.18 70.48 17.09 Q 71.39 18 72.73 18 Q 73.74 18 74.55 17.48 Q 75.36 16.97 75.4 16.02 L 77.39 16.02 Q 77.17 17.69 75.87 18.6 Q 74.58 19.51 72.73 19.51 Z M 75.56 12.79 Q 75.33 11.23 74.51 10.46 Q 73.7 9.68 72.51 9.68 Q 71.36 9.68 70.53 10.45 Q 69.71 11.22 69.48 12.79 Z M 86.59 16.4 L 86.59 14.01 L 85.27 14.01 Q 81.09 14.01 81.09 16.28 Q 81.09 17.11 81.7 17.55 Q 82.31 18 83.36 18 Q 84.3 18 85.19 17.57 Q 86.08 17.14 86.59 16.4 Z M 86.59 18.14 Q 85.12 19.51 82.8 19.51 Q 81.19 19.51 80.15 18.63 Q 79.11 17.76 79.11 16.38 Q 79.11 12.59 85.65 12.59 L 86.59 12.59 Q 86.59 11.42 86.47 10.9 Q 86.35 10.37 85.78 10.03 Q 85.22 9.68 84 9.68 Q 81.43 9.68 81.35 11.52 L 79.43 11.52 Q 79.64 8.18 84.1 8.18 Q 86.18 8.18 87.35 9.01 Q 88.51 9.83 88.51 12.25 L 88.51 19.25 L 86.59 19.25 Z M 95.23 19.51 Q 90.79 19.51 90.58 16.02 L 92.51 16.02 Q 92.53 18 95.21 18 Q 96.4 18 97.03 17.5 Q 97.65 17.01 97.65 16.26 Q 97.65 15.53 97.04 15.23 Q 96.43 14.93 94.52 14.45 Q 92.6 13.97 91.72 13.37 Q 90.84 12.78 90.84 11.29 Q 90.84 9.94 91.93 9.06 Q 93.03 8.18 94.87 8.18 Q 99.12 8.18 99.22 11.21 L 97.3 11.21 Q 97.2 9.68 95 9.68 Q 94.03 9.68 93.39 10.05 Q 92.76 10.41 92.76 11.12 Q 92.76 11.75 93.25 12.03 Q 93.74 12.31 95.7 12.79 Q 97.67 13.26 98.62 13.89 Q 99.57 14.53 99.57 16.08 Q 99.57 17.56 98.39 18.53 Q 97.22 19.51 95.23 19.51 Z M 108.65 17.87 Q 107.21 19.51 105.42 19.51 Q 101.76 19.51 101.76 15.51 L 101.76 8.42 L 103.68 8.42 L 103.68 15.43 Q 103.68 16.75 104.15 17.33 Q 104.62 17.92 105.7 17.92 Q 107.32 17.92 108.65 16.18 L 108.65 8.42 L 110.57 8.42 L 110.57 19.25 L 108.65 19.25 Z M 119.04 10.18 Q 118.64 10.06 117.87 10.06 Q 116.4 10.06 115.35 11.6 L 115.35 19.25 L 113.42 19.25 L 113.42 8.42 L 115.35 8.42 L 115.35 9.93 Q 116.56 8.18 118.17 8.18 Q 118.57 8.18 119.04 8.26 Z M 124.98 19.51 Q 122.59 19.51 121.14 18.01 Q 119.69 16.52 119.69 13.84 Q 119.69 11.19 121.09 9.68 Q 122.5 8.18 124.76 8.18 Q 127.08 8.18 128.46 9.66 Q 129.84 11.14 129.84 13.84 L 129.84 14.3 L 121.69 14.3 Q 121.81 16.18 122.73 17.09 Q 123.64 18 124.98 18 Q 125.99 18 126.8 17.48 Q 127.61 16.97 127.65 16.02 L 129.64 16.02 Q 129.42 17.69 128.13 18.6 Q 126.83 19.51 124.98 19.51 Z M 127.81 12.79 Q 127.58 11.23 126.76 10.46 Q 125.95 9.68 124.76 9.68 Q 123.61 9.68 122.78 10.45 Q 121.96 11.22 121.73 12.79 Z M 139.99 13.13 L 137.36 6.19 L 134.85 13.13 Z M 144.54 19.25 L 142.31 19.25 L 140.57 14.7 L 134.31 14.7 L 132.65 19.25 L 130.56 19.25 L 136.31 4.29 L 138.44 4.29 Z M 148.41 19.25 L 146.42 19.25 L 146.42 4.29 L 148.41 4.29 Z" style="fill: rgb(255, 255, 255);"/>
</svg>