<?xml version="1.0" encoding="utf-8"?>
<svg viewBox="0 0 152 20" fill="none" xmlns="http://www.w3.org/2000/svg">
  <path d="M 18.71 16.51 Q 16.03 16.51 14.71 15.31 Q 13.38 14.1 13.31 12.22 L 14.93 12.22 Q 15.06 13.64 16.11 14.32 Q 17.16 14.99 18.64 14.99 Q 20.05 14.99 20.91 14.42 Q 21.77 13.84 21.77 12.84 Q 21.77 11.8 20.88 11.32 Q 19.99 10.85 17.82 10.38 Q 15.64 9.92 14.7 9.1 Q 13.75 8.28 13.75 6.91 Q 13.75 5.38 14.98 4.39 Q 16.22 3.4 18.25 3.4 Q 20.4 3.4 21.71 4.4 Q 23.03 5.39 23.1 7.21 L 21.47 7.21 Q 21.22 4.91 18.32 4.91 Q 16.92 4.91 16.15 5.44 Q 15.39 5.96 15.39 6.84 Q 15.39 7.63 16 8.03 Q 16.62 8.43 18.31 8.8 Q 20 9.17 20.99 9.53 Q 21.99 9.9 22.7 10.66 Q 23.41 11.43 23.41 12.71 Q 23.41 14.35 22.1 15.43 Q 20.8 16.51 18.71 16.51 Z M 25.35 8.29 Q 26.57 6.91 28.09 6.91 Q 31.19 6.91 31.19 10.29 L 31.19 16.29 L 29.56 16.29 L 29.56 10.36 Q 29.56 9.24 29.16 8.75 Q 28.76 8.25 27.84 8.25 Q 26.6 8.25 25.35 9.72 L 25.35 16.29 L 23.72 16.29 L 23.72 7.12 L 25.35 7.12 Z M 39.53 13.88 L 39.53 11.85 L 38.41 11.85 Q 34.87 11.85 34.87 13.78 Q 34.87 14.48 35.39 14.85 Q 35.9 15.23 36.79 15.23 Q 37.59 15.23 38.34 14.86 Q 39.09 14.5 39.53 13.88 Z M 39.53 15.35 Q 38.28 16.51 36.32 16.51 Q 34.95 16.51 34.07 15.77 Q 33.19 15.03 33.19 13.86 Q 33.19 10.65 38.73 10.65 L 39.53 10.65 Q 39.53 9.66 39.42 9.22 Q 39.32 8.77 38.84 8.48 Q 38.37 8.18 37.33 8.18 Q 35.15 8.18 35.08 9.74 L 33.46 9.74 Q 33.64 6.91 37.42 6.91 Q 39.18 6.91 40.16 7.61 Q 41.15 8.31 41.15 10.36 L 41.15 16.29 L 39.53 16.29 Z M 45.35 8.22 Q 46.44 6.91 47.97 6.91 Q 49.77 6.91 50.75 8.19 Q 51.74 9.46 51.74 11.63 Q 51.74 13.89 50.64 15.2 Q 49.53 16.51 47.86 16.51 Q 46.37 16.51 45.35 15.58 L 45.35 19.82 L 43.72 19.82 L 43.72 7.12 L 45.35 7.12 Z M 45.35 14.11 Q 46.4 15.23 47.75 15.23 Q 48.81 15.23 49.43 14.32 Q 50.05 13.42 50.05 11.63 Q 50.05 9.94 49.46 9.06 Q 48.88 8.18 47.82 8.18 Q 46.47 8.18 45.35 9.76 Z M 65.84 16.29 L 64.25 16.29 L 64.25 5.51 L 60.64 16.29 L 59.14 16.29 L 55.52 5.51 L 55.52 16.29 L 53.93 16.29 L 53.93 3.62 L 56.45 3.62 L 59.88 14.18 L 63.33 3.62 L 65.84 3.62 Z M 72.62 16.51 Q 70.59 16.51 69.37 15.24 Q 68.14 13.97 68.14 11.71 Q 68.14 9.46 69.33 8.19 Q 70.51 6.91 72.43 6.91 Q 74.4 6.91 75.57 8.17 Q 76.74 9.42 76.74 11.71 L 76.74 12.1 L 69.83 12.1 Q 69.94 13.69 70.71 14.46 Q 71.48 15.23 72.62 15.23 Q 73.47 15.23 74.16 14.79 Q 74.84 14.36 74.88 13.55 L 76.56 13.55 Q 76.37 14.97 75.28 15.74 Q 74.19 16.51 72.62 16.51 Z M 75.02 10.82 Q 74.82 9.5 74.13 8.84 Q 73.44 8.18 72.43 8.18 Q 71.46 8.18 70.76 8.84 Q 70.06 9.49 69.87 10.82 Z M 84.53 13.88 L 84.53 11.85 L 83.41 11.85 Q 79.87 11.85 79.87 13.78 Q 79.87 14.48 80.39 14.85 Q 80.9 15.23 81.79 15.23 Q 82.59 15.23 83.34 14.86 Q 84.09 14.5 84.53 13.88 Z M 84.53 15.35 Q 83.28 16.51 81.32 16.51 Q 79.95 16.51 79.07 15.77 Q 78.19 15.03 78.19 13.86 Q 78.19 10.65 83.73 10.65 L 84.53 10.65 Q 84.53 9.66 84.42 9.22 Q 84.32 8.77 83.84 8.48 Q 83.37 8.18 82.33 8.18 Q 80.15 8.18 80.08 9.74 L 78.46 9.74 Q 78.64 6.91 82.42 6.91 Q 84.18 6.91 85.16 7.61 Q 86.15 8.31 86.15 10.36 L 86.15 16.29 L 84.53 16.29 Z M 91.99 16.51 Q 88.23 16.51 88.06 13.55 L 89.69 13.55 Q 89.71 15.23 91.98 15.23 Q 92.99 15.23 93.52 14.81 Q 94.05 14.39 94.05 13.76 Q 94.05 13.14 93.53 12.88 Q 93.01 12.63 91.39 12.22 Q 89.77 11.81 89.02 11.31 Q 88.28 10.81 88.28 9.55 Q 88.28 8.41 89.21 7.66 Q 90.13 6.91 91.69 6.91 Q 95.29 6.91 95.37 9.48 L 93.75 9.48 Q 93.66 8.18 91.8 8.18 Q 90.98 8.18 90.44 8.5 Q 89.9 8.81 89.9 9.4 Q 89.9 9.94 90.32 10.18 Q 90.73 10.41 92.39 10.82 Q 94.06 11.22 94.87 11.75 Q 95.67 12.29 95.67 13.6 Q 95.67 14.86 94.68 15.68 Q 93.68 16.51 91.99 16.51 Z M 102.03 15.12 Q 100.81 16.51 99.29 16.51 Q 96.18 16.51 96.18 13.12 L 96.18 7.12 L 97.82 7.12 L 97.82 13.05 Q 97.82 14.17 98.21 14.67 Q 98.61 15.16 99.53 15.16 Q 100.89 15.16 102.03 13.69 L 102.03 7.12 L 103.65 7.12 L 103.65 16.29 L 102.03 16.29 Z M 110.98 8.61 Q 110.63 8.5 109.99 8.5 Q 108.74 8.5 107.85 9.81 L 107.85 16.29 L 106.22 16.29 L 106.22 7.12 L 107.85 7.12 L 107.85 8.4 Q 108.88 6.91 110.24 6.91 Q 110.58 6.91 110.98 6.98 Z M 115.12 16.51 Q 113.09 16.51 111.87 15.24 Q 110.64 13.97 110.64 11.71 Q 110.64 9.46 111.83 8.19 Q 113.01 6.91 114.93 6.91 Q 116.9 6.91 118.07 8.17 Q 119.24 9.42 119.24 11.71 L 119.24 12.1 L 112.33 12.1 Q 112.44 13.69 113.21 14.46 Q 113.98 15.23 115.12 15.23 Q 115.97 15.23 116.66 14.79 Q 117.34 14.36 117.38 13.55 L 119.06 13.55 Q 118.87 14.97 117.78 15.74 Q 116.69 16.51 115.12 16.51 Z M 117.52 10.82 Q 117.32 9.5 116.63 8.84 Q 115.94 8.18 114.93 8.18 Q 113.96 8.18 113.26 8.84 Q 112.56 9.49 112.37 10.82 Z M 127.98 11.11 L 125.75 5.23 L 123.63 11.11 Z M 131.84 16.29 L 129.95 16.29 L 128.48 12.44 L 123.17 12.44 L 121.77 16.29 L 120 16.29 L 124.86 3.62 L 126.67 3.62 Z M 135.83 16.29 L 134.14 16.29 L 134.14 3.62 L 135.83 3.62 Z" style="fill: rgb(255, 255, 255);"/>
</svg>