<?xml version="1.0" encoding="utf-8"?>
<svg viewBox="0 0 152 20" fill="none" xmlns="http://www.w3.org/2000/svg">
  <path d="M 18.71 16.51 Q 16.03 16.51 14.71 15.31 Q 13.38 14.1 13.31 12.22 L 14.93 12.22 Q 15.06 13.64 16.11 14.32 Q 17.16 14.99 18.64 14.99 Q 20.05 14.99 20.91 14.42 Q 21.77 13.84 21.77 12.84 Q 21.77 11.8 20.88 11.32 Q 19.99 10.85 17.82 10.38 Q 15.64 9.92 14.7 9.1 Q 13.75 8.28 13.75 6.91 Q 13.75 5.38 14.98 4.39 Q 16.22 3.4 18.25 3.4 Q 20.4 3.4 21.71 4.4 Q 23.03 5.39 23.1 7.21 L 21.47 7.21 Q 21.22 4.91 18.32 4.91 Q 16.92 4.91 16.15 5.44 Q 15.39 5.96 15.39 6.84 Q 15.39 7.63 16 8.03 Q 16.62 8.43 18.31 8.8 Q 20 9.17 20.99 9.53 Q 21.99 9.9 22.7 10.66 Q 23.41 11.43 23.41 12.71 Q 23.41 14.35 22.1 15.43 Q 20.8 16.51 18.71 16.51 Z M 26.7 8.29 Q 27.92 6.91 29.44 6.91 Q 32.54 6.91 32.54 10.29 L 32.54 16.29 L 30.91 16.29 L 30.91 10.36 Q 30.91 9.24 30.51 8.75 Q 30.11 8.25 29.19 8.25 Q 27.95 8.25 26.7 9.72 L 26.7 16.29 L 25.07 16.29 L 25.07 7.12 L 26.7 7.12 Z M 39.96 13.88 L 39.96 11.85 L 38.84 11.85 Q 35.3 11.85 35.3 13.78 Q 35.3 14.48 35.82 14.85 Q 36.34 15.23 37.22 15.23 Q 38.02 15.23 38.77 14.86 Q 39.53 14.5 39.96 13.88 Z M 39.96 15.35 Q 38.71 16.51 36.75 16.51 Q 35.39 16.51 34.5 15.77 Q 33.62 15.03 33.62 13.86 Q 33.62 10.65 39.16 10.65 L 39.96 10.65 Q 39.96 9.66 39.85 9.22 Q 39.75 8.77 39.27 8.48 Q 38.8 8.18 37.76 8.18 Q 35.58 8.18 35.52 9.74 L 33.89 9.74 Q 34.07 6.91 37.85 6.91 Q 39.61 6.91 40.6 7.61 Q 41.58 8.31 41.58 10.36 L 41.58 16.29 L 39.96 16.29 Z M 44.86 8.22 Q 45.95 6.91 47.48 6.91 Q 49.28 6.91 50.27 8.19 Q 51.25 9.46 51.25 11.63 Q 51.25 13.89 50.15 15.2 Q 49.05 16.51 47.37 16.51 Q 45.88 16.51 44.86 15.58 L 44.86 19.82 L 43.23 19.82 L 43.23 7.12 L 44.86 7.12 Z M 44.86 14.11 Q 45.91 15.23 47.27 15.23 Q 48.32 15.23 48.94 14.32 Q 49.57 13.42 49.57 11.63 Q 49.57 9.94 48.98 9.06 Q 48.39 8.18 47.34 8.18 Q 45.98 8.18 44.86 9.76 Z M 64.44 16.29 L 62.85 16.29 L 62.85 5.51 L 59.23 16.29 L 57.73 16.29 L 54.12 5.51 L 54.12 16.29 L 52.53 16.29 L 52.53 3.62 L 55.04 3.62 L 58.47 14.18 L 61.92 3.62 L 64.44 3.62 Z M 72.1 16.51 Q 70.08 16.51 68.85 15.24 Q 67.62 13.97 67.62 11.71 Q 67.62 9.46 68.81 8.19 Q 70 6.91 71.92 6.91 Q 73.88 6.91 75.05 8.17 Q 76.22 9.42 76.22 11.71 L 76.22 12.1 L 69.32 12.1 Q 69.42 13.69 70.2 14.46 Q 70.97 15.23 72.1 15.23 Q 72.96 15.23 73.64 14.79 Q 74.33 14.36 74.37 13.55 L 76.05 13.55 Q 75.86 14.97 74.77 15.74 Q 73.67 16.51 72.1 16.51 Z M 74.5 10.82 Q 74.31 9.5 73.61 8.84 Q 72.92 8.18 71.92 8.18 Q 70.94 8.18 70.24 8.84 Q 69.54 9.49 69.35 10.82 Z M 83.09 13.88 L 83.09 11.85 L 81.98 11.85 Q 78.43 11.85 78.43 13.78 Q 78.43 14.48 78.95 14.85 Q 79.47 15.23 80.35 15.23 Q 81.16 15.23 81.91 14.86 Q 82.66 14.5 83.09 13.88 Z M 83.09 15.35 Q 81.85 16.51 79.89 16.51 Q 78.52 16.51 77.64 15.77 Q 76.76 15.03 76.76 13.86 Q 76.76 10.65 82.3 10.65 L 83.09 10.65 Q 83.09 9.66 82.99 9.22 Q 82.88 8.77 82.41 8.48 Q 81.93 8.18 80.9 8.18 Q 78.72 8.18 78.65 9.74 L 77.03 9.74 Q 77.21 6.91 80.98 6.91 Q 82.75 6.91 83.73 7.61 Q 84.72 8.31 84.72 10.36 L 84.72 16.29 L 83.09 16.29 Z M 89.64 16.51 Q 85.88 16.51 85.71 13.55 L 87.34 13.55 Q 87.36 15.23 89.62 15.23 Q 90.64 15.23 91.17 14.81 Q 91.7 14.39 91.7 13.76 Q 91.7 13.14 91.18 12.88 Q 90.66 12.63 89.04 12.22 Q 87.42 11.81 86.67 11.31 Q 85.92 10.81 85.92 9.55 Q 85.92 8.41 86.85 7.66 Q 87.78 6.91 89.34 6.91 Q 92.94 6.91 93.02 9.48 L 91.4 9.48 Q 91.31 8.18 89.45 8.18 Q 88.63 8.18 88.09 8.5 Q 87.55 8.81 87.55 9.4 Q 87.55 9.94 87.96 10.18 Q 88.38 10.41 90.04 10.82 Q 91.71 11.22 92.51 11.75 Q 93.32 12.29 93.32 13.6 Q 93.32 14.86 92.32 15.68 Q 91.33 16.51 89.64 16.51 Z M 101.25 15.12 Q 100.04 16.51 98.51 16.51 Q 95.41 16.51 95.41 13.12 L 95.41 7.12 L 97.05 7.12 L 97.05 13.05 Q 97.05 14.17 97.44 14.67 Q 97.84 15.16 98.76 15.16 Q 100.12 15.16 101.25 13.69 L 101.25 7.12 L 102.88 7.12 L 102.88 16.29 L 101.25 16.29 Z M 109.29 8.61 Q 108.94 8.5 108.3 8.5 Q 107.05 8.5 106.16 9.81 L 106.16 16.29 L 104.53 16.29 L 104.53 7.12 L 106.16 7.12 L 106.16 8.4 Q 107.19 6.91 108.55 6.91 Q 108.89 6.91 109.29 6.98 Z M 115.24 16.51 Q 113.21 16.51 111.99 15.24 Q 110.76 13.97 110.76 11.71 Q 110.76 9.46 111.95 8.19 Q 113.14 6.91 115.05 6.91 Q 117.02 6.91 118.19 8.17 Q 119.36 9.42 119.36 11.71 L 119.36 12.1 L 112.45 12.1 Q 112.56 13.69 113.33 14.46 Q 114.1 15.23 115.24 15.23 Q 116.09 15.23 116.78 14.79 Q 117.47 14.36 117.5 13.55 L 119.19 13.55 Q 119 14.97 117.9 15.74 Q 116.81 16.51 115.24 16.51 Z M 117.64 10.82 Q 117.44 9.5 116.75 8.84 Q 116.06 8.18 115.05 8.18 Q 114.08 8.18 113.38 8.84 Q 112.68 9.49 112.49 10.82 Z M 127.19 11.11 L 124.96 5.23 L 122.83 11.11 Z M 131.04 16.29 L 129.15 16.29 L 127.68 12.44 L 122.37 12.44 L 120.97 16.29 L 119.2 16.29 L 124.07 3.62 L 125.87 3.62 Z M 133.88 16.29 L 132.19 16.29 L 132.19 3.62 L 133.88 3.62 Z" transform="matrix(1.197615, 0, 0, 0.995481, -14.989342, 0.066598)" style="fill: rgb(255, 255, 255);"/>
</svg>