<?xml version="1.0" encoding="utf-8"?>
<svg viewBox="0 0 152 20" fill="none" xmlns="http://www.w3.org/2000/svg">
  <path d="M 18.71 16.51 Q 16.03 16.51 14.71 15.31 Q 13.38 14.1 13.31 12.22 L 14.93 12.22 Q 15.06 13.64 16.11 14.32 Q 17.16 14.99 18.64 14.99 Q 20.05 14.99 20.91 14.42 Q 21.77 13.84 21.77 12.84 Q 21.77 11.8 20.88 11.32 Q 19.99 10.85 17.82 10.38 Q 15.64 9.92 14.7 9.1 Q 13.75 8.28 13.75 6.91 Q 13.75 5.38 14.98 4.39 Q 16.22 3.4 18.25 3.4 Q 20.4 3.4 21.71 4.4 Q 23.03 5.39 23.1 7.21 L 21.47 7.21 Q 21.22 4.91 18.32 4.91 Q 16.92 4.91 16.15 5.44 Q 15.39 5.96 15.39 6.84 Q 15.39 7.63 16 8.03 Q 16.62 8.43 18.31 8.8 Q 20 9.17 20.99 9.53 Q 21.99 9.9 22.7 10.66 Q 23.41 11.43 23.41 12.71 Q 23.41 14.35 22.1 15.43 Q 20.8 16.51 18.71 16.51 Z M 25.88 8.29 Q 27.1 6.91 28.62 6.91 Q 31.72 6.91 31.72 10.29 L 31.72 16.29 L 30.09 16.29 L 30.09 10.36 Q 30.09 9.24 29.69 8.75 Q 29.29 8.25 28.37 8.25 Q 27.13 8.25 25.88 9.72 L 25.88 16.29 L 24.25 16.29 L 24.25 7.12 L 25.88 7.12 Z M 40.59 13.88 L 40.59 11.85 L 39.47 11.85 Q 35.93 11.85 35.93 13.78 Q 35.93 14.48 36.45 14.85 Q 36.96 15.23 37.85 15.23 Q 38.65 15.23 39.4 14.86 Q 40.15 14.5 40.59 13.88 Z M 40.59 15.35 Q 39.34 16.51 37.38 16.51 Q 36.01 16.51 35.13 15.77 Q 34.25 15.03 34.25 13.86 Q 34.25 10.65 39.79 10.65 L 40.59 10.65 Q 40.59 9.66 40.48 9.22 Q 40.38 8.77 39.9 8.48 Q 39.43 8.18 38.39 8.18 Q 36.21 8.18 36.14 9.74 L 34.52 9.74 Q 34.7 6.91 38.48 6.91 Q 40.24 6.91 41.23 7.61 Q 42.21 8.31 42.21 10.36 L 42.21 16.29 L 40.59 16.29 Z M 44.84 8.22 Q 45.92 6.91 47.45 6.91 Q 49.25 6.91 50.24 8.19 Q 51.22 9.46 51.22 11.63 Q 51.22 13.89 50.12 15.2 Q 49.02 16.51 47.34 16.51 Q 45.86 16.51 44.84 15.58 L 44.84 19.82 L 43.2 19.82 L 43.2 7.12 L 44.84 7.12 Z M 44.84 14.11 Q 45.88 15.23 47.24 15.23 Q 48.29 15.23 48.91 14.32 Q 49.54 13.42 49.54 11.63 Q 49.54 9.94 48.95 9.06 Q 48.36 8.18 47.31 8.18 Q 45.95 8.18 44.84 9.76 Z M 65.86 16.29 L 64.27 16.29 L 64.27 5.51 L 60.65 16.29 L 59.15 16.29 L 55.54 5.51 L 55.54 16.29 L 53.95 16.29 L 53.95 3.62 L 56.46 3.62 L 59.89 14.18 L 63.34 3.62 L 65.86 3.62 Z M 72.37 16.51 Q 70.35 16.51 69.12 15.24 Q 67.9 13.97 67.9 11.71 Q 67.9 9.46 69.08 8.19 Q 70.27 6.91 72.19 6.91 Q 74.15 6.91 75.32 8.17 Q 76.49 9.42 76.49 11.71 L 76.49 12.1 L 69.59 12.1 Q 69.69 13.69 70.47 14.46 Q 71.24 15.23 72.37 15.23 Q 73.23 15.23 73.91 14.79 Q 74.6 14.36 74.64 13.55 L 76.32 13.55 Q 76.13 14.97 75.04 15.74 Q 73.95 16.51 72.37 16.51 Z M 74.77 10.82 Q 74.58 9.5 73.88 8.84 Q 73.19 8.18 72.19 8.18 Q 71.21 8.18 70.51 8.84 Q 69.81 9.49 69.62 10.82 Z M 82.71 13.88 L 82.71 11.85 L 81.59 11.85 Q 78.05 11.85 78.05 13.78 Q 78.05 14.48 78.57 14.85 Q 79.09 15.23 79.97 15.23 Q 80.77 15.23 81.52 14.86 Q 82.27 14.5 82.71 13.88 Z M 82.71 15.35 Q 81.46 16.51 79.5 16.51 Q 78.13 16.51 77.25 15.77 Q 76.37 15.03 76.37 13.86 Q 76.37 10.65 81.91 10.65 L 82.71 10.65 Q 82.71 9.66 82.6 9.22 Q 82.5 8.77 82.02 8.48 Q 81.55 8.18 80.51 8.18 Q 78.33 8.18 78.26 9.74 L 76.64 9.74 Q 76.82 6.91 80.6 6.91 Q 82.36 6.91 83.35 7.61 Q 84.33 8.31 84.33 10.36 L 84.33 16.29 L 82.71 16.29 Z M 90.7 16.51 Q 86.94 16.51 86.77 13.55 L 88.41 13.55 Q 88.42 15.23 90.69 15.23 Q 91.7 15.23 92.23 14.81 Q 92.76 14.39 92.76 13.76 Q 92.76 13.14 92.24 12.88 Q 91.72 12.63 90.1 12.22 Q 88.48 11.81 87.74 11.31 Q 86.99 10.81 86.99 9.55 Q 86.99 8.41 87.92 7.66 Q 88.85 6.91 90.4 6.91 Q 94.01 6.91 94.08 9.48 L 92.46 9.48 Q 92.37 8.18 90.51 8.18 Q 89.69 8.18 89.15 8.5 Q 88.61 8.81 88.61 9.4 Q 88.61 9.94 89.03 10.18 Q 89.44 10.41 91.11 10.82 Q 92.77 11.22 93.58 11.75 Q 94.39 12.29 94.39 13.6 Q 94.39 14.86 93.39 15.68 Q 92.39 16.51 90.7 16.51 Z M 101.66 15.12 Q 100.44 16.51 98.92 16.51 Q 95.82 16.51 95.82 13.12 L 95.82 7.12 L 97.45 7.12 L 97.45 13.05 Q 97.45 14.17 97.85 14.67 Q 98.25 15.16 99.16 15.16 Q 100.53 15.16 101.66 13.69 L 101.66 7.12 L 103.29 7.12 L 103.29 16.29 L 101.66 16.29 Z M 111.15 8.61 Q 110.8 8.5 110.15 8.5 Q 108.91 8.5 108.02 9.81 L 108.02 16.29 L 106.38 16.29 L 106.38 7.12 L 108.02 7.12 L 108.02 8.4 Q 109.05 6.91 110.4 6.91 Q 110.75 6.91 111.15 6.98 Z M 116.6 16.51 Q 114.58 16.51 113.35 15.24 Q 112.12 13.97 112.12 11.71 Q 112.12 9.46 113.31 8.19 Q 114.5 6.91 116.42 6.91 Q 118.38 6.91 119.55 8.17 Q 120.72 9.42 120.72 11.71 L 120.72 12.1 L 113.82 12.1 Q 113.92 13.69 114.69 14.46 Q 115.47 15.23 116.6 15.23 Q 117.45 15.23 118.14 14.79 Q 118.83 14.36 118.86 13.55 L 120.55 13.55 Q 120.36 14.97 119.27 15.74 Q 118.17 16.51 116.6 16.51 Z M 119 10.82 Q 118.8 9.5 118.11 8.84 Q 117.42 8.18 116.42 8.18 Q 115.44 8.18 114.74 8.84 Q 114.04 9.49 113.85 10.82 Z M 127.89 11.11 L 125.66 5.23 L 123.54 11.11 Z M 131.75 16.29 L 129.85 16.29 L 128.39 12.44 L 123.08 12.44 L 121.68 16.29 L 119.91 16.29 L 124.77 3.62 L 126.58 3.62 Z M 135.87 16.29 L 134.19 16.29 L 134.19 3.62 L 135.87 3.62 Z" transform="matrix(1.201337, 0, 0, 1.172608, -15.035935, -3.449938)" style="fill: rgb(255, 255, 255);"/>
</svg>