<svg width="152" height="20" viewBox="0 0 152 20" fill="none" xmlns="http://www.w3.org/2000/svg">
<path d="M5.44012 15.26C2.70012 15.26 0.700117 13.9 0.120117 11.52L2.04012 10.94C2.40012 12.46 3.60012 13.34 5.44012 13.34C7.34012 13.34 8.46012 12.36 8.46012 11.12C8.46012 9.92 7.62012 9.26 6.34012 8.96L4.26012 8.46C2.42012 8.04 0.720117 7 0.720117 4.6C0.720117 2.48 2.50012 0.739998 5.44012 0.739998C8.02012 0.739998 9.82012 2.04 10.2601 4.1L8.38012 4.66C8.10012 3.48 7.04012 2.6 5.44012 2.6C3.62012 2.6 2.76012 3.58 2.76012 4.6C2.76012 5.78 3.68012 6.28 4.76012 6.52L6.84012 7.04C8.98012 7.56 10.5601 8.82 10.5601 11.12C10.5601 13.32 8.70012 15.26 5.44012 15.26Z" fill="white"/>
<path d="M13.195 15V4.72H15.195V8C15.195 6.14 16.495 4.46 18.575 4.46C20.955 4.46 22.175 6.24 22.175 8.2V15H20.175V8.78C20.175 7.36 19.115 6.36 17.775 6.36C16.235 6.36 15.195 7.48 15.195 9V15H13.195Z" fill="white"/>
<path d="M27.9728 15.26C25.9128 15.26 24.4528 13.92 24.4528 12C24.4528 10.08 25.8728 8.96 27.8528 8.76L31.3528 8.4C31.3328 7.18 30.4528 6.22 28.9128 6.22C27.4928 6.22 26.8128 7.12 26.6328 7.94L24.8528 7.42C25.3128 5.62 26.7928 4.46 28.9128 4.46C31.9128 4.46 33.3128 6.46 33.3128 8.52V15H31.3328V11.84C31.3328 14.02 29.9328 15.26 27.9728 15.26ZM26.4528 12C26.4528 12.98 27.2928 13.6 28.3928 13.6C30.5128 13.6 31.3528 12.06 31.3528 10.6V10.04L28.2928 10.36C27.0728 10.5 26.4528 11.06 26.4528 12Z" fill="white"/>
<path d="M41.2651 6.28C39.3451 6.28 38.0251 7.86 38.0251 9.86C38.0251 12.14 39.5051 13.44 41.3051 13.44C43.1251 13.44 44.5451 12 44.5451 9.86C44.5451 7.66 43.1251 6.28 41.2651 6.28ZM36.1051 19.2V4.72H38.1051V8.44C38.3851 6.16 39.7051 4.46 42.0851 4.46C44.6651 4.46 46.5851 6.78 46.5851 9.86C46.5851 13 44.7051 15.26 42.0851 15.26C40.0251 15.26 38.3851 13.82 38.1051 11.46V19.2H36.1051Z" fill="white"/>
<path d="M54.6418 15L51.0618 1.32V15H49.0418V0.999998H53.0018L56.5618 14.68L60.2018 0.999998H64.1618V15H62.1618V1.32L58.5618 15H54.6418Z" fill="white"/>
<path d="M71.7937 15.26C68.7537 15.26 66.6137 13.04 66.6137 9.8C66.6137 6.6 68.8937 4.46 71.8137 4.46C74.9337 4.46 76.7137 6.84 76.7137 9.56C76.7137 9.96 76.6937 10.34 76.6537 10.58H68.6137C68.8737 12.38 70.1137 13.5 71.8337 13.5C73.1137 13.5 74.1937 12.92 74.7737 11.98L76.2537 12.94C75.4537 14.3 73.8737 15.26 71.7937 15.26ZM68.6337 8.9H74.7737C74.7537 7.44 73.5137 6.2 71.7937 6.2C70.0537 6.2 68.9337 7.34 68.6337 8.9Z" fill="white"/>
<path d="M81.9181 15.26C79.8581 15.26 78.3981 13.92 78.3981 12C78.3981 10.08 79.8181 8.96 81.7981 8.76L85.2981 8.4C85.2781 7.18 84.3981 6.22 82.8581 6.22C81.4381 6.22 80.7581 7.12 80.5781 7.94L78.7981 7.42C79.2581 5.62 80.7381 4.46 82.8581 4.46C85.8581 4.46 87.2581 6.46 87.2581 8.52V15H85.2781V11.84C85.2781 14.02 83.8781 15.26 81.9181 15.26ZM80.3981 12C80.3981 12.98 81.2381 13.6 82.3381 13.6C84.4581 13.6 85.2981 12.06 85.2981 10.6V10.04L82.2381 10.36C81.0181 10.5 80.3981 11.06 80.3981 12Z" fill="white"/>
<path d="M93.6104 15.26C91.2504 15.26 89.6904 13.98 89.3104 12.14L91.1304 11.66C91.4104 12.9 92.4704 13.52 93.7304 13.52C95.2504 13.52 96.0104 12.88 96.0104 12.1C96.0104 11.4 95.5504 10.96 94.5504 10.76L92.7904 10.42C91.3104 10.14 89.9504 9.38 89.9504 7.54C89.9504 5.82 91.4104 4.46 93.8504 4.46C95.9704 4.46 97.6104 5.6 97.9504 7.42L96.1704 7.9C96.0104 6.86 95.0904 6.16 93.8304 6.16C92.5304 6.16 91.8704 6.76 91.8704 7.48C91.8704 8.16 92.3704 8.54 93.3304 8.72L95.0504 9.08C96.8104 9.44 97.9704 10.38 97.9704 12.04C97.9704 13.94 96.2904 15.26 93.6104 15.26Z" fill="white"/>
<path d="M109.358 4.72V15H107.358V11.74C107.238 13.58 105.998 15.26 103.878 15.26C101.498 15.26 100.378 13.5 100.378 11.52V4.72H102.378V10.94C102.378 12.54 103.398 13.36 104.738 13.36C106.278 13.36 107.358 12.24 107.358 10.74V4.72H109.358Z" fill="white"/>
<path d="M112.121 15V4.72H114.101V8.8C114.141 6.18 115.621 4.62 117.861 4.62V6.76H117.181C115.101 6.76 114.121 8.18 114.121 9.84V15H112.121Z" fill="white"/>
<path d="M124.098 15.26C121.058 15.26 118.918 13.04 118.918 9.8C118.918 6.6 121.198 4.46 124.118 4.46C127.238 4.46 129.018 6.84 129.018 9.56C129.018 9.96 128.998 10.34 128.958 10.58H120.918C121.178 12.38 122.418 13.5 124.138 13.5C125.418 13.5 126.498 12.92 127.078 11.98L128.558 12.94C127.758 14.3 126.178 15.26 124.098 15.26ZM120.938 8.9H127.078C127.058 7.44 125.818 6.2 124.098 6.2C122.358 6.2 121.238 7.34 120.938 8.9Z" fill="white"/>
<path d="M130.003 15L134.463 0.999998H138.403L142.863 15H140.723L139.743 11.9H133.103L132.123 15H130.003ZM133.703 9.96H139.143L136.423 1.32L133.703 9.96Z" fill="white"/>
<path d="M144.461 15V13.1H147.141V2.9H144.461V0.999998H151.881V2.9H149.201V13.1H151.881V15H144.461Z" fill="white"/>
</svg>
