<?xml version="1.0" encoding="utf-8"?>
<svg viewBox="0 0 150 23" width="150px" height="23px" fill="none" xmlns="http://www.w3.org/2000/svg">
  <path d="M 7.32 16.38 Q 4.15 16.38 2.59 14.96 Q 1.02 13.55 0.94 11.32 L 2.85 11.32 Q 3 12.99 4.24 13.8 Q 5.48 14.6 7.24 14.6 Q 8.9 14.6 9.91 13.91 Q 10.93 13.23 10.93 12.06 Q 10.93 10.82 9.88 10.26 Q 8.83 9.7 6.26 9.15 Q 3.69 8.61 2.58 7.64 Q 1.46 6.67 1.46 5.05 Q 1.46 3.24 2.91 2.07 Q 4.37 0.91 6.78 0.91 Q 9.31 0.91 10.86 2.08 Q 12.41 3.26 12.5 5.4 L 10.57 5.4 Q 10.28 2.69 6.86 2.69 Q 5.2 2.69 4.3 3.31 Q 3.39 3.93 3.39 4.96 Q 3.39 5.9 4.12 6.37 Q 4.85 6.84 6.84 7.28 Q 8.84 7.72 10.01 8.15 Q 11.18 8.58 12.02 9.48 Q 12.86 10.38 12.86 11.9 Q 12.86 13.83 11.32 15.11 Q 9.79 16.38 7.32 16.38 Z M 17.28 6.68 Q 18.72 5.05 20.51 5.05 Q 24.18 5.05 24.18 9.04 L 24.18 16.13 L 22.25 16.13 L 22.25 9.13 Q 22.25 7.8 21.77 7.22 Q 21.3 6.64 20.22 6.64 Q 18.75 6.64 17.28 8.37 L 17.28 16.13 L 15.35 16.13 L 15.35 5.3 L 17.28 5.3 Z M 33.82 13.28 L 33.82 10.88 L 32.5 10.88 Q 28.32 10.88 28.32 13.16 Q 28.32 13.98 28.93 14.43 Q 29.54 14.87 30.58 14.87 Q 31.53 14.87 32.42 14.44 Q 33.31 14.01 33.82 13.28 Z M 33.82 15.01 Q 32.35 16.38 30.03 16.38 Q 28.42 16.38 27.38 15.51 Q 26.34 14.64 26.34 13.26 Q 26.34 9.46 32.88 9.46 L 33.82 9.46 Q 33.82 8.3 33.69 7.77 Q 33.57 7.25 33.01 6.9 Q 32.45 6.55 31.22 6.55 Q 28.65 6.55 28.57 8.39 L 26.65 8.39 Q 26.87 5.05 31.33 5.05 Q 33.41 5.05 34.57 5.88 Q 35.74 6.71 35.74 9.13 L 35.74 16.13 L 33.82 16.13 Z M 40.51 6.6 Q 41.8 5.05 43.6 5.05 Q 45.73 5.05 46.89 6.56 Q 48.05 8.06 48.05 10.63 Q 48.05 13.29 46.75 14.84 Q 45.45 16.38 43.47 16.38 Q 41.72 16.38 40.51 15.29 L 40.51 20.29 L 38.58 20.29 L 38.58 5.3 L 40.51 5.3 Z M 40.51 13.56 Q 41.75 14.87 43.35 14.87 Q 44.59 14.87 45.33 13.81 Q 46.06 12.74 46.06 10.63 Q 46.06 8.63 45.37 7.59 Q 44.68 6.55 43.43 6.55 Q 41.83 6.55 40.51 8.41 Z M 64.53 16.13 L 62.65 16.13 L 62.65 3.4 L 58.38 16.13 L 56.61 16.13 L 52.34 3.4 L 52.34 16.13 L 50.46 16.13 L 50.46 1.17 L 53.43 1.17 L 57.49 13.64 L 61.56 1.17 L 64.53 1.17 Z M 72.21 16.38 Q 69.82 16.38 68.37 14.89 Q 66.92 13.39 66.92 10.72 Q 66.92 8.06 68.32 6.56 Q 69.73 5.05 71.99 5.05 Q 74.31 5.05 75.69 6.53 Q 77.07 8.01 77.07 10.72 L 77.07 11.18 L 68.92 11.18 Q 69.04 13.06 69.96 13.96 Q 70.87 14.87 72.21 14.87 Q 73.22 14.87 74.03 14.36 Q 74.84 13.84 74.88 12.89 L 76.87 12.89 Q 76.64 14.57 75.35 15.47 Q 74.06 16.38 72.21 16.38 Z M 75.04 9.67 Q 74.81 8.11 73.99 7.33 Q 73.18 6.55 71.99 6.55 Q 70.84 6.55 70.01 7.33 Q 69.18 8.1 68.96 9.67 Z M 86.09 13.28 L 86.09 10.88 L 84.77 10.88 Q 80.59 10.88 80.59 13.16 Q 80.59 13.98 81.2 14.43 Q 81.81 14.87 82.85 14.87 Q 83.8 14.87 84.69 14.44 Q 85.58 14.01 86.09 13.28 Z M 86.09 15.01 Q 84.62 16.38 82.3 16.38 Q 80.69 16.38 79.65 15.51 Q 78.61 14.64 78.61 13.26 Q 78.61 9.46 85.15 9.46 L 86.09 9.46 Q 86.09 8.3 85.96 7.77 Q 85.84 7.25 85.28 6.9 Q 84.72 6.55 83.49 6.55 Q 80.92 6.55 80.84 8.39 L 78.92 8.39 Q 79.14 5.05 83.6 5.05 Q 85.68 5.05 86.84 5.88 Q 88 6.71 88 9.13 L 88 16.13 L 86.09 16.13 Z M 94.72 16.38 Q 90.28 16.38 90.08 12.89 L 92.01 12.89 Q 92.03 14.87 94.7 14.87 Q 95.89 14.87 96.52 14.38 Q 97.15 13.88 97.15 13.14 Q 97.15 12.4 96.54 12.1 Q 95.93 11.8 94.01 11.32 Q 92.1 10.84 91.22 10.25 Q 90.33 9.66 90.33 8.17 Q 90.33 6.82 91.43 5.94 Q 92.53 5.05 94.36 5.05 Q 98.62 5.05 98.71 8.09 L 96.79 8.09 Q 96.69 6.55 94.5 6.55 Q 93.53 6.55 92.89 6.92 Q 92.25 7.29 92.25 7.99 Q 92.25 8.63 92.74 8.91 Q 93.23 9.19 95.2 9.66 Q 97.16 10.14 98.11 10.77 Q 99.07 11.4 99.07 12.95 Q 99.07 14.43 97.89 15.41 Q 96.71 16.38 94.72 16.38 Z M 108.15 14.75 Q 106.71 16.38 104.91 16.38 Q 101.25 16.38 101.25 12.38 L 101.25 5.3 L 103.18 5.3 L 103.18 12.3 Q 103.18 13.63 103.65 14.21 Q 104.12 14.79 105.2 14.79 Q 106.81 14.79 108.15 13.06 L 108.15 5.3 L 110.07 5.3 L 110.07 16.13 L 108.15 16.13 Z M 118.54 7.05 Q 118.13 6.93 117.36 6.93 Q 115.89 6.93 114.84 8.47 L 114.84 16.13 L 112.92 16.13 L 112.92 5.3 L 114.84 5.3 L 114.84 6.81 Q 116.06 5.05 117.66 5.05 Q 118.07 5.05 118.54 5.14 Z M 124.48 16.38 Q 122.09 16.38 120.64 14.89 Q 119.19 13.39 119.19 10.72 Q 119.19 8.06 120.59 6.56 Q 122 5.05 124.26 5.05 Q 126.58 5.05 127.96 6.53 Q 129.34 8.01 129.34 10.72 L 129.34 11.18 L 121.19 11.18 Q 121.31 13.06 122.22 13.96 Q 123.14 14.87 124.48 14.87 Q 125.49 14.87 126.3 14.36 Q 127.11 13.84 127.15 12.89 L 129.14 12.89 Q 128.91 14.57 127.62 15.47 Q 126.33 16.38 124.48 16.38 Z M 127.31 9.67 Q 127.08 8.11 126.26 7.33 Q 125.44 6.55 124.26 6.55 Q 123.11 6.55 122.28 7.33 Q 121.45 8.1 121.23 9.67 Z M 139.47 10 L 136.84 3.06 L 134.33 10 Z M 144.03 16.13 L 141.79 16.13 L 140.06 11.58 L 133.79 11.58 L 132.14 16.13 L 130.04 16.13 L 135.79 1.17 L 137.92 1.17 Z M 147.92 16.13 L 145.93 16.13 L 145.93 1.17 L 147.92 1.17 Z" transform="matrix(1.00265, 0, 0, 1.122939, 0.000027, 0.118451)" style="fill: rgb(255, 255, 255);"/>
</svg>