<svg width="82" height="82" viewBox="0 0 82 82" fill="none" xmlns="http://www.w3.org/2000/svg">
<rect y="27" width="82" height="55" rx="21" fill="url(#paint0_linear_54_3846)" fill-opacity="0.05"/>
<path d="M41 1H21C9.9543 1 1 9.9543 1 21V61C1 72.0457 9.9543 81 21 81H41" stroke="url(#paint1_radial_54_3846)" stroke-width="2" stroke-linecap="round"/>
<path d="M41 81H61C72.0457 81 81 72.0457 81 61V21C81 9.9543 72.0457 0.999996 61 0.999996H41" stroke="url(#paint2_radial_54_3846)" stroke-width="2" stroke-linecap="round"/>
<path d="M45 51L28 51" stroke="#B8D3FF" stroke-width="2" stroke-linecap="round"/>
<path d="M54 51L49 51" stroke="#B8D3FF" stroke-width="2" stroke-linecap="round"/>
<path d="M33 41L28 41" stroke="#B8D3FF" stroke-width="2" stroke-linecap="round"/>
<path d="M54 41L37 41" stroke="#B8D3FF" stroke-width="2" stroke-linecap="round"/>
<path d="M54 31L44 31" stroke="#B8D3FF" stroke-width="2" stroke-linecap="round"/>
<path d="M40 31L28 31" stroke="#B8D3FF" stroke-width="2" stroke-linecap="round"/>
<path d="M33 39V43" stroke="#B8D3FF" stroke-width="2" stroke-linecap="round"/>
<path d="M44 29V33" stroke="#B8D3FF" stroke-width="2" stroke-linecap="round"/>
<path d="M49 49V53" stroke="#B8D3FF" stroke-width="2" stroke-linecap="round"/>
<rect x="27" y="32" width="19" height="19" fill="url(#paint3_linear_54_3846)" fill-opacity="0.3"/>
<rect x="48" y="32" width="7" height="19" fill="url(#paint4_linear_54_3846)" fill-opacity="0.3"/>
<defs>
<linearGradient id="paint0_linear_54_3846" x1="41" y1="27" x2="41" y2="82" gradientUnits="userSpaceOnUse">
<stop stop-color="white" stop-opacity="0"/>
<stop offset="1" stop-color="white"/>
</linearGradient>
<radialGradient id="paint1_radial_54_3846" cx="0" cy="0" r="1" gradientUnits="userSpaceOnUse" gradientTransform="translate(41 81) rotate(-90) scale(80 82.2)">
<stop stop-color="#99A8BF"/>
<stop offset="1" stop-color="#99A8BF" stop-opacity="0.05"/>
</radialGradient>
<radialGradient id="paint2_radial_54_3846" cx="0" cy="0" r="1" gradientUnits="userSpaceOnUse" gradientTransform="translate(41 1) rotate(90) scale(80 82.2)">
<stop stop-color="#99A8BF"/>
<stop offset="1" stop-color="#99A8BF" stop-opacity="0.05"/>
</radialGradient>
<linearGradient id="paint3_linear_54_3846" x1="36.5" y1="32" x2="36.5" y2="51" gradientUnits="userSpaceOnUse">
<stop stop-color="#B8D3FF" stop-opacity="0"/>
<stop offset="1" stop-color="#B8D3FF"/>
</linearGradient>
<linearGradient id="paint4_linear_54_3846" x1="51.5" y1="32" x2="51.5" y2="51" gradientUnits="userSpaceOnUse">
<stop stop-color="#B8D3FF" stop-opacity="0"/>
<stop offset="1" stop-color="#B8D3FF"/>
</linearGradient>
</defs>
</svg>
