<svg width="1250" height="470" viewBox="0 0 1250 470" fill="none" xmlns="http://www.w3.org/2000/svg">
<g opacity="0.4">
<circle cx="1" cy="1" r="1" fill="#C3C9FF"/>
<g opacity="0.16">
<circle cx="53" cy="1" r="1" fill="#C3C9FF"/>
</g>
<g opacity="0.25">
<circle cx="105" cy="1" r="1" fill="#C3C9FF"/>
</g>
<g opacity="0.15">
<circle cx="157" cy="1" r="1" fill="#C3C9FF"/>
</g>
<circle cx="209" cy="1" r="1" fill="#C3C9FF"/>
<g opacity="0.1">
<circle cx="53" cy="53" r="1" fill="#C3C9FF"/>
</g>
<g opacity="0.5">
<circle cx="105" cy="53" r="1" fill="#C3C9FF"/>
</g>
<circle cx="157" cy="53" r="1" fill="#C3C9FF"/>
<g opacity="0.06">
<circle cx="209" cy="53" r="1" fill="#C3C9FF"/>
</g>
<g opacity="0.25">
<circle cx="1" cy="105" r="1" fill="#C3C9FF"/>
</g>
<g opacity="0.25">
<circle cx="53" cy="105" r="1" fill="#C3C9FF"/>
</g>
<g opacity="0.1">
<circle cx="105" cy="105" r="1" fill="#C3C9FF"/>
</g>
<circle cx="157" cy="105" r="1" fill="#C3C9FF"/>
<circle cx="1" cy="157" r="1" fill="#C3C9FF"/>
<circle cx="53" cy="157" r="1" fill="#C3C9FF"/>
<g opacity="0.15">
<circle cx="105" cy="157" r="1" fill="#C3C9FF"/>
</g>
<circle cx="157" cy="157" r="1" fill="#C3C9FF"/>
<g opacity="0.25">
<circle cx="209" cy="157" r="1" fill="#C3C9FF"/>
</g>
<circle cx="1" cy="209" r="1" fill="#C3C9FF"/>
<circle cx="53" cy="209" r="1" fill="#C3C9FF"/>
<g opacity="0.5">
<circle cx="105" cy="209" r="1" fill="#C3C9FF"/>
</g>
</g>
<g opacity="0.4">
<circle cx="261" cy="1" r="1" fill="#C3C9FF"/>
<g opacity="0.16">
<circle cx="313" cy="1" r="1" fill="#C3C9FF"/>
</g>
<g opacity="0.25">
<circle cx="365" cy="1" r="1" fill="#C3C9FF"/>
</g>
<g opacity="0.15">
<circle cx="417" cy="1" r="1" fill="#C3C9FF"/>
</g>
<circle cx="469" cy="1" r="1" fill="#C3C9FF"/>
<g opacity="0.1">
<circle cx="313" cy="53" r="1" fill="#C3C9FF"/>
</g>
<g opacity="0.5">
<circle cx="365" cy="53" r="1" fill="#C3C9FF"/>
</g>
<circle cx="417" cy="53" r="1" fill="#C3C9FF"/>
<g opacity="0.06">
<circle cx="469" cy="53" r="1" fill="#C3C9FF"/>
</g>
<g opacity="0.25">
<circle cx="261" cy="105" r="1" fill="#C3C9FF"/>
</g>
<g opacity="0.25">
<circle cx="313" cy="105" r="1" fill="#C3C9FF"/>
</g>
<g opacity="0.1">
<circle cx="365" cy="105" r="1" fill="#C3C9FF"/>
</g>
<circle cx="417" cy="105" r="1" fill="#C3C9FF"/>
<circle cx="261" cy="157" r="1" fill="#C3C9FF"/>
<circle cx="313" cy="157" r="1" fill="#C3C9FF"/>
<g opacity="0.15">
<circle cx="365" cy="157" r="1" fill="#C3C9FF"/>
</g>
<circle cx="417" cy="157" r="1" fill="#C3C9FF"/>
<g opacity="0.25">
<circle cx="469" cy="157" r="1" fill="#C3C9FF"/>
</g>
<circle cx="261" cy="209" r="1" fill="#C3C9FF"/>
<circle cx="313" cy="209" r="1" fill="#C3C9FF"/>
<g opacity="0.5">
<circle cx="365" cy="209" r="1" fill="#C3C9FF"/>
</g>
</g>
<g opacity="0.4">
<circle cx="521" cy="1" r="1" fill="#C3C9FF"/>
<g opacity="0.16">
<circle cx="573" cy="1" r="1" fill="#C3C9FF"/>
</g>
<g opacity="0.25">
<circle cx="625" cy="1" r="1" fill="#C3C9FF"/>
</g>
<g opacity="0.15">
<circle cx="677" cy="1" r="1" fill="#C3C9FF"/>
</g>
<circle cx="729" cy="1" r="1" fill="#C3C9FF"/>
<g opacity="0.1">
<circle cx="573" cy="53" r="1" fill="#C3C9FF"/>
</g>
<g opacity="0.5">
<circle cx="625" cy="53" r="1" fill="#C3C9FF"/>
</g>
<circle cx="677" cy="53" r="1" fill="#C3C9FF"/>
<g opacity="0.06">
<circle cx="729" cy="53" r="1" fill="#C3C9FF"/>
</g>
<g opacity="0.25">
<circle cx="521" cy="105" r="1" fill="#C3C9FF"/>
</g>
<g opacity="0.25">
<circle cx="573" cy="105" r="1" fill="#C3C9FF"/>
</g>
<g opacity="0.1">
<circle cx="625" cy="105" r="1" fill="#C3C9FF"/>
</g>
<circle cx="677" cy="105" r="1" fill="#C3C9FF"/>
<circle cx="521" cy="157" r="1" fill="#C3C9FF"/>
<circle cx="573" cy="157" r="1" fill="#C3C9FF"/>
<g opacity="0.15">
<circle cx="625" cy="157" r="1" fill="#C3C9FF"/>
</g>
<circle cx="677" cy="157" r="1" fill="#C3C9FF"/>
<g opacity="0.25">
<circle cx="729" cy="157" r="1" fill="#C3C9FF"/>
</g>
<circle cx="521" cy="209" r="1" fill="#C3C9FF"/>
<circle cx="573" cy="209" r="1" fill="#C3C9FF"/>
<g opacity="0.5">
<circle cx="625" cy="209" r="1" fill="#C3C9FF"/>
</g>
</g>
<g opacity="0.4">
<circle cx="781" cy="1" r="1" fill="#C3C9FF"/>
<g opacity="0.16">
<circle cx="833" cy="1" r="1" fill="#C3C9FF"/>
</g>
<g opacity="0.25">
<circle cx="885" cy="1" r="1" fill="#C3C9FF"/>
</g>
<g opacity="0.15">
<circle cx="937" cy="1" r="1" fill="#C3C9FF"/>
</g>
<circle cx="989" cy="1" r="1" fill="#C3C9FF"/>
<g opacity="0.1">
<circle cx="833" cy="53" r="1" fill="#C3C9FF"/>
</g>
<g opacity="0.5">
<circle cx="885" cy="53" r="1" fill="#C3C9FF"/>
</g>
<circle cx="937" cy="53" r="1" fill="#C3C9FF"/>
<g opacity="0.06">
<circle cx="989" cy="53" r="1" fill="#C3C9FF"/>
</g>
<g opacity="0.25">
<circle cx="781" cy="105" r="1" fill="#C3C9FF"/>
</g>
<g opacity="0.25">
<circle cx="833" cy="105" r="1" fill="#C3C9FF"/>
</g>
<g opacity="0.1">
<circle cx="885" cy="105" r="1" fill="#C3C9FF"/>
</g>
<circle cx="937" cy="105" r="1" fill="#C3C9FF"/>
<circle cx="781" cy="157" r="1" fill="#C3C9FF"/>
<circle cx="833" cy="157" r="1" fill="#C3C9FF"/>
<g opacity="0.15">
<circle cx="885" cy="157" r="1" fill="#C3C9FF"/>
</g>
<circle cx="937" cy="157" r="1" fill="#C3C9FF"/>
<g opacity="0.25">
<circle cx="989" cy="157" r="1" fill="#C3C9FF"/>
</g>
<circle cx="781" cy="209" r="1" fill="#C3C9FF"/>
<circle cx="833" cy="209" r="1" fill="#C3C9FF"/>
<g opacity="0.5">
<circle cx="885" cy="209" r="1" fill="#C3C9FF"/>
</g>
</g>
<g opacity="0.4">
<circle cx="1041" cy="1" r="1" fill="#C3C9FF"/>
<g opacity="0.16">
<circle cx="1093" cy="1" r="1" fill="#C3C9FF"/>
</g>
<g opacity="0.25">
<circle cx="1145" cy="1" r="1" fill="#C3C9FF"/>
</g>
<g opacity="0.15">
<circle cx="1197" cy="1" r="1" fill="#C3C9FF"/>
</g>
<circle cx="1249" cy="1" r="1" fill="#C3C9FF"/>
<g opacity="0.1">
<circle cx="1093" cy="53" r="1" fill="#C3C9FF"/>
</g>
<g opacity="0.5">
<circle cx="1145" cy="53" r="1" fill="#C3C9FF"/>
</g>
<circle cx="1197" cy="53" r="1" fill="#C3C9FF"/>
<g opacity="0.06">
<circle cx="1249" cy="53" r="1" fill="#C3C9FF"/>
</g>
<g opacity="0.25">
<circle cx="1041" cy="105" r="1" fill="#C3C9FF"/>
</g>
<g opacity="0.25">
<circle cx="1093" cy="105" r="1" fill="#C3C9FF"/>
</g>
<g opacity="0.1">
<circle cx="1145" cy="105" r="1" fill="#C3C9FF"/>
</g>
<circle cx="1197" cy="105" r="1" fill="#C3C9FF"/>
<circle cx="1041" cy="157" r="1" fill="#C3C9FF"/>
<circle cx="1093" cy="157" r="1" fill="#C3C9FF"/>
<g opacity="0.15">
<circle cx="1145" cy="157" r="1" fill="#C3C9FF"/>
</g>
<circle cx="1197" cy="157" r="1" fill="#C3C9FF"/>
<g opacity="0.25">
<circle cx="1249" cy="157" r="1" fill="#C3C9FF"/>
</g>
<circle cx="1041" cy="209" r="1" fill="#C3C9FF"/>
<circle cx="1093" cy="209" r="1" fill="#C3C9FF"/>
<g opacity="0.5">
<circle cx="1145" cy="209" r="1" fill="#C3C9FF"/>
</g>
</g>
<g opacity="0.4">
<circle cx="1" cy="261" r="1" fill="#C3C9FF"/>
<g opacity="0.16">
<circle cx="53" cy="261" r="1" fill="#C3C9FF"/>
</g>
<g opacity="0.25">
<circle cx="105" cy="261" r="1" fill="#C3C9FF"/>
</g>
<g opacity="0.15">
<circle cx="157" cy="261" r="1" fill="#C3C9FF"/>
</g>
<circle cx="209" cy="261" r="1" fill="#C3C9FF"/>
<g opacity="0.1">
<circle cx="53" cy="313" r="1" fill="#C3C9FF"/>
</g>
<g opacity="0.5">
<circle cx="105" cy="313" r="1" fill="#C3C9FF"/>
</g>
<circle cx="157" cy="313" r="1" fill="#C3C9FF"/>
<g opacity="0.06">
<circle cx="209" cy="313" r="1" fill="#C3C9FF"/>
</g>
<g opacity="0.25">
<circle cx="1" cy="365" r="1" fill="#C3C9FF"/>
</g>
<g opacity="0.25">
<circle cx="53" cy="365" r="1" fill="#C3C9FF"/>
</g>
<g opacity="0.1">
<circle cx="105" cy="365" r="1" fill="#C3C9FF"/>
</g>
<circle cx="157" cy="365" r="1" fill="#C3C9FF"/>
<circle cx="1" cy="417" r="1" fill="#C3C9FF"/>
<circle cx="53" cy="417" r="1" fill="#C3C9FF"/>
<g opacity="0.15">
<circle cx="105" cy="417" r="1" fill="#C3C9FF"/>
</g>
<circle cx="157" cy="417" r="1" fill="#C3C9FF"/>
<g opacity="0.25">
<circle cx="209" cy="417" r="1" fill="#C3C9FF"/>
</g>
<circle cx="1" cy="469" r="1" fill="#C3C9FF"/>
<circle cx="53" cy="469" r="1" fill="#C3C9FF"/>
<g opacity="0.5">
<circle cx="105" cy="469" r="1" fill="#C3C9FF"/>
</g>
</g>
<g opacity="0.4">
<circle cx="261" cy="261" r="1" fill="#C3C9FF"/>
<g opacity="0.16">
<circle cx="313" cy="261" r="1" fill="#C3C9FF"/>
</g>
<g opacity="0.25">
<circle cx="365" cy="261" r="1" fill="#C3C9FF"/>
</g>
<g opacity="0.15">
<circle cx="417" cy="261" r="1" fill="#C3C9FF"/>
</g>
<circle cx="469" cy="261" r="1" fill="#C3C9FF"/>
<g opacity="0.1">
<circle cx="313" cy="313" r="1" fill="#C3C9FF"/>
</g>
<g opacity="0.5">
<circle cx="365" cy="313" r="1" fill="#C3C9FF"/>
</g>
<circle cx="417" cy="313" r="1" fill="#C3C9FF"/>
<g opacity="0.06">
<circle cx="469" cy="313" r="1" fill="#C3C9FF"/>
</g>
<g opacity="0.25">
<circle cx="261" cy="365" r="1" fill="#C3C9FF"/>
</g>
<g opacity="0.25">
<circle cx="313" cy="365" r="1" fill="#C3C9FF"/>
</g>
<g opacity="0.1">
<circle cx="365" cy="365" r="1" fill="#C3C9FF"/>
</g>
<circle cx="417" cy="365" r="1" fill="#C3C9FF"/>
<circle cx="261" cy="417" r="1" fill="#C3C9FF"/>
<circle cx="313" cy="417" r="1" fill="#C3C9FF"/>
<g opacity="0.15">
<circle cx="365" cy="417" r="1" fill="#C3C9FF"/>
</g>
<circle cx="417" cy="417" r="1" fill="#C3C9FF"/>
<g opacity="0.25">
<circle cx="469" cy="417" r="1" fill="#C3C9FF"/>
</g>
<circle cx="261" cy="469" r="1" fill="#C3C9FF"/>
<circle cx="313" cy="469" r="1" fill="#C3C9FF"/>
<g opacity="0.5">
<circle cx="365" cy="469" r="1" fill="#C3C9FF"/>
</g>
</g>
<g opacity="0.4">
<circle cx="521" cy="261" r="1" fill="#C3C9FF"/>
<g opacity="0.16">
<circle cx="573" cy="261" r="1" fill="#C3C9FF"/>
</g>
<g opacity="0.25">
<circle cx="625" cy="261" r="1" fill="#C3C9FF"/>
</g>
<g opacity="0.15">
<circle cx="677" cy="261" r="1" fill="#C3C9FF"/>
</g>
<circle cx="729" cy="261" r="1" fill="#C3C9FF"/>
<g opacity="0.1">
<circle cx="573" cy="313" r="1" fill="#C3C9FF"/>
</g>
<g opacity="0.5">
<circle cx="625" cy="313" r="1" fill="#C3C9FF"/>
</g>
<circle cx="677" cy="313" r="1" fill="#C3C9FF"/>
<g opacity="0.06">
<circle cx="729" cy="313" r="1" fill="#C3C9FF"/>
</g>
<g opacity="0.25">
<circle cx="521" cy="365" r="1" fill="#C3C9FF"/>
</g>
<g opacity="0.25">
<circle cx="573" cy="365" r="1" fill="#C3C9FF"/>
</g>
<g opacity="0.1">
<circle cx="625" cy="365" r="1" fill="#C3C9FF"/>
</g>
<circle cx="677" cy="365" r="1" fill="#C3C9FF"/>
<circle cx="521" cy="417" r="1" fill="#C3C9FF"/>
<circle cx="573" cy="417" r="1" fill="#C3C9FF"/>
<g opacity="0.15">
<circle cx="625" cy="417" r="1" fill="#C3C9FF"/>
</g>
<circle cx="677" cy="417" r="1" fill="#C3C9FF"/>
<g opacity="0.25">
<circle cx="729" cy="417" r="1" fill="#C3C9FF"/>
</g>
<circle cx="521" cy="469" r="1" fill="#C3C9FF"/>
<circle cx="573" cy="469" r="1" fill="#C3C9FF"/>
<g opacity="0.5">
<circle cx="625" cy="469" r="1" fill="#C3C9FF"/>
</g>
</g>
<g opacity="0.4">
<circle cx="781" cy="261" r="1" fill="#C3C9FF"/>
<g opacity="0.16">
<circle cx="833" cy="261" r="1" fill="#C3C9FF"/>
</g>
<g opacity="0.25">
<circle cx="885" cy="261" r="1" fill="#C3C9FF"/>
</g>
<g opacity="0.15">
<circle cx="937" cy="261" r="1" fill="#C3C9FF"/>
</g>
<circle cx="989" cy="261" r="1" fill="#C3C9FF"/>
<g opacity="0.1">
<circle cx="833" cy="313" r="1" fill="#C3C9FF"/>
</g>
<g opacity="0.5">
<circle cx="885" cy="313" r="1" fill="#C3C9FF"/>
</g>
<circle cx="937" cy="313" r="1" fill="#C3C9FF"/>
<g opacity="0.06">
<circle cx="989" cy="313" r="1" fill="#C3C9FF"/>
</g>
<g opacity="0.25">
<circle cx="781" cy="365" r="1" fill="#C3C9FF"/>
</g>
<g opacity="0.25">
<circle cx="833" cy="365" r="1" fill="#C3C9FF"/>
</g>
<g opacity="0.1">
<circle cx="885" cy="365" r="1" fill="#C3C9FF"/>
</g>
<circle cx="937" cy="365" r="1" fill="#C3C9FF"/>
<circle cx="781" cy="417" r="1" fill="#C3C9FF"/>
<circle cx="833" cy="417" r="1" fill="#C3C9FF"/>
<g opacity="0.15">
<circle cx="885" cy="417" r="1" fill="#C3C9FF"/>
</g>
<circle cx="937" cy="417" r="1" fill="#C3C9FF"/>
<g opacity="0.25">
<circle cx="989" cy="417" r="1" fill="#C3C9FF"/>
</g>
<circle cx="781" cy="469" r="1" fill="#C3C9FF"/>
<circle cx="833" cy="469" r="1" fill="#C3C9FF"/>
<g opacity="0.5">
<circle cx="885" cy="469" r="1" fill="#C3C9FF"/>
</g>
</g>
<g opacity="0.4">
<circle cx="1041" cy="261" r="1" fill="#C3C9FF"/>
<g opacity="0.16">
<circle cx="1093" cy="261" r="1" fill="#C3C9FF"/>
</g>
<g opacity="0.25">
<circle cx="1145" cy="261" r="1" fill="#C3C9FF"/>
</g>
<g opacity="0.15">
<circle cx="1197" cy="261" r="1" fill="#C3C9FF"/>
</g>
<circle cx="1249" cy="261" r="1" fill="#C3C9FF"/>
<g opacity="0.1">
<circle cx="1093" cy="313" r="1" fill="#C3C9FF"/>
</g>
<g opacity="0.5">
<circle cx="1145" cy="313" r="1" fill="#C3C9FF"/>
</g>
<circle cx="1197" cy="313" r="1" fill="#C3C9FF"/>
<g opacity="0.06">
<circle cx="1249" cy="313" r="1" fill="#C3C9FF"/>
</g>
<g opacity="0.25">
<circle cx="1041" cy="365" r="1" fill="#C3C9FF"/>
</g>
<g opacity="0.25">
<circle cx="1093" cy="365" r="1" fill="#C3C9FF"/>
</g>
<g opacity="0.1">
<circle cx="1145" cy="365" r="1" fill="#C3C9FF"/>
</g>
<circle cx="1197" cy="365" r="1" fill="#C3C9FF"/>
<circle cx="1041" cy="417" r="1" fill="#C3C9FF"/>
<circle cx="1093" cy="417" r="1" fill="#C3C9FF"/>
<g opacity="0.15">
<circle cx="1145" cy="417" r="1" fill="#C3C9FF"/>
</g>
<circle cx="1197" cy="417" r="1" fill="#C3C9FF"/>
<g opacity="0.25">
<circle cx="1249" cy="417" r="1" fill="#C3C9FF"/>
</g>
<circle cx="1041" cy="469" r="1" fill="#C3C9FF"/>
<circle cx="1093" cy="469" r="1" fill="#C3C9FF"/>
<g opacity="0.5">
<circle cx="1145" cy="469" r="1" fill="#C3C9FF"/>
</g>
</g>
</svg>
