<?xml version="1.0" standalone="no"?>
<!DOCTYPE svg PUBLIC "-//W3C//DTD SVG 1.0//EN" "http://www.w3.org/TR/2001/REC-SVG-20010904/DTD/svg10.dtd">
<svg xmlns="http://www.w3.org/2000/svg" xmlns:xlink="http://www.w3.org/1999/xlink" id="body_1" width="345" height="68">

<g transform="matrix(2.5 0 0 2.5185184 0 0)">
	<g>
		<g>
            <path d="M0 0C 13.8071 0 25 11.1929 25 25L25 25L2 25C 0.89542997 25 0 24.1046 0 23L0 23L0 0z" stroke="none" fill="#4A6CF7" fill-rule="nonzero" />
            <path d="M6 25C 6 11.1929 17.1929 0 31 0L31 0L31 23C 31 24.104599 30.1046 25 29 25L29 25L6 25z" stroke="none" fill="#4A6CF7" fill-rule="nonzero" fill-opacity="0.49803922" />
		</g>
		<text transform="matrix(1 0 0 1 0 0)" x="31.50001" y="19.25" style="fill:#000000;font-family:ABeeZee;font-weight:bold;" font-size="14">
SnapMeasureAI
		</text>
	</g>
</g>
</svg>